<?xml version="1.0"?>
<svg version="1.1" id="topsvg"
xmlns="http://www.w3.org/2000/svg" xmlns:xlink="http://www.w3.org/1999/xlink"
xmlns:cml="http://www.xml-cml.org/schema" x="0" y="0" width="100%" height="100%" viewBox="0 0 100 75">
<title>Multiple Molecules - Open Babel Depiction</title>
<rect x="0" y="0" width="100" height="75" fill="white"/>
<g transform="translate(0,0)">
<svg width="25" height="25" x="0" y="0" viewBox="0 0 186.921 186.921"
font-family="sans-serif" stroke="rgb(0,0,0)" stroke-width="2"  stroke-linecap="round">
<line x1="137.7" y1="137.7" x2="118.6" y2="118.6" stroke="rgb(0,0,0)"  stroke-width="2.0"/>
<line x1="76.5" y1="73.7" x2="78.0" y2="73.3" stroke="rgb(0,0,0)"  stroke-width="1.0"/>
<line x1="74.7" y1="69.7" x2="77.5" y2="68.9" stroke="rgb(0,0,0)"  stroke-width="1.0"/>
<line x1="73.0" y1="65.7" x2="77.0" y2="64.6" stroke="rgb(0,0,0)"  stroke-width="1.0"/>
<line x1="71.3" y1="61.7" x2="76.5" y2="60.3" stroke="rgb(0,0,0)"  stroke-width="1.0"/>
<line x1="69.6" y1="57.8" x2="76.1" y2="56.0" stroke="rgb(0,0,0)"  stroke-width="1.0"/>
<line x1="67.8" y1="53.8" x2="75.6" y2="51.7" stroke="rgb(0,0,0)"  stroke-width="1.0"/>
<line x1="78.6" y1="78.6" x2="52.6" y2="71.6" stroke="rgb(0,0,0)"  stroke-width="2.0"/>
<line x1="118.6" y1="78.6" x2="137.7" y2="59.5" stroke="rgb(0,0,0)"  stroke-width="2.0"/>
<line x1="78.6" y1="78.6" x2="118.6" y2="78.6" stroke="rgb(0,0,0)"  stroke-width="2.0"/>
<line x1="118.6" y1="78.6" x2="118.6" y2="118.6" stroke="rgb(0,0,0)"  stroke-width="2.0"/>
<line x1="118.6" y1="118.6" x2="78.6" y2="118.6" stroke="rgb(0,0,0)"  stroke-width="2.0"/>
<line x1="78.6" y1="118.6" x2="78.6" y2="78.6" stroke="rgb(0,0,0)"  stroke-width="2.0"/>
<text x="140.921304" y="154.921304" fill="rgb(255,12,12)"  stroke="rgb(255,12,12)" stroke-width="1" font-size="16" >OH</text>
<text x="62.284271" y="48.000000" fill="rgb(191,191,191)"  stroke="rgb(191,191,191)" stroke-width="1" font-size="16" >H</text>
<text x="22.000000" y="76.284271" fill="rgb(255,12,12)"  stroke="rgb(255,12,12)" stroke-width="1" font-size="16" >HO</text>
<text x="140.921304" y="58.352762" fill="rgb(255,12,12)"  stroke="rgb(255,12,12)" stroke-width="1" font-size="16" >OH</text>
</svg>
</g>
<text text-anchor="middle" font-size="1.500000" fill ="black" font-family="sans-serif"
x="12.500000" y="24.333333" >['*CC(*)O', '*C(O)[C@@H](*)O']</text>
<g transform="translate(25.000000,0.000000)">
<svg width="25.000000" height="25.000000" x="0" y="0" viewBox="0 0 229.282032 183.923048"
font-family="sans-serif" stroke="rgb(0,0,0)" stroke-width="2.000000"  stroke-linecap="round">
<line x1="178.0" y1="68.1" x2="154.6" y2="54.6" stroke="rgb(0,0,0)"  stroke-width="2.0"/>
<line x1="154.6" y1="54.6" x2="120.0" y2="74.6" stroke="rgb(0,0,0)"  stroke-width="2.0"/>
<line x1="100.0" y1="109.3" x2="86.5" y2="132.7" stroke="rgb(0,0,0)"  stroke-width="2.0"/>
<line x1="100.0" y1="109.3" x2="113.5" y2="132.7" stroke="rgb(0,0,0)"  stroke-width="2.0"/>
<polygon points="100.000000 109.282032 76.535898 76.641016 83.464102 72.641016 " stroke-width="2.000000" fill="rgb(0,0,0)"  stroke="rgb(0,0,0)" />
<polygon points="80.000000 74.641016 63.135898 53.431535 70.064102 49.431535 " stroke-width="2.000000" fill="rgb(0,0,0)"  stroke="rgb(0,0,0)" />
<line x1="80.0" y1="74.6" x2="53.0" y2="74.6" stroke="rgb(0,0,0)"  stroke-width="2.0"/>
<line x1="80.0" y1="74.6" x2="120.0" y2="74.6" stroke="rgb(0,0,0)"  stroke-width="2.0"/>
<line x1="120.0" y1="74.6" x2="100.0" y2="109.3" stroke="rgb(0,0,0)"  stroke-width="2.0"/>
<line x1="100.0" y1="109.3" x2="80.0" y2="74.6" stroke="rgb(0,0,0)"  stroke-width="2.0"/>
<text x="183.282032" y="82.641016" fill="rgb(255,12,12)"  stroke="rgb(255,12,12)" stroke-width="1" font-size="16" >OH</text>
<text x="74.000000" y="151.923048" fill="rgb(191,191,191)"  stroke="rgb(191,191,191)" stroke-width="1" font-size="16" >H</text>
<text x="114.000000" y="151.923048" fill="rgb(255,12,12)"  stroke="rgb(255,12,12)" stroke-width="1" font-size="16" >OH</text>
<text x="54.000000" y="48.000000" fill="rgb(191,191,191)"  stroke="rgb(191,191,191)" stroke-width="1" font-size="16" >H</text>
<text x="22.000000" y="82.641016" fill="rgb(255,12,12)"  stroke="rgb(255,12,12)" stroke-width="1" font-size="16" >HO</text>
</svg>
</g>
<text text-anchor="middle" font-size="1.500000" fill ="black" font-family="sans-serif"
x="37.500000" y="24.333333" >['*C(*)CO', '*[C@@H](O)[C@@H](*)O']</text>
<g transform="translate(50.000000,0.000000)">
<svg width="25.000000" height="25.000000" x="0" y="0" viewBox="0 0 197.274066 186.921304"
font-family="sans-serif" stroke="rgb(0,0,0)" stroke-width="2.000000"  stroke-linecap="round">
<line x1="137.7" y1="137.7" x2="118.6" y2="118.6" stroke="rgb(0,0,0)"  stroke-width="2.0"/>
<line x1="78.6" y1="78.6" x2="71.6" y2="52.6" stroke="rgb(0,0,0)"  stroke-width="2.0"/>
<line x1="78.6" y1="78.6" x2="52.6" y2="71.6" stroke="rgb(0,0,0)"  stroke-width="2.0"/>
<polygon points="78.637033 78.637033 118.637033 74.637033 118.637033 82.637033 " stroke-width="2.000000" fill="rgb(0,0,0)"  stroke="rgb(0,0,0)" />
<polygon points="118.637033 78.637033 143.488569 67.836979 145.559121 75.564386 " stroke-width="2.000000" fill="rgb(0,0,0)"  stroke="rgb(0,0,0)" />
<line x1="118.6" y1="78.6" x2="125.6" y2="52.6" stroke="rgb(0,0,0)"  stroke-width="2.0"/>
<line x1="78.6" y1="78.6" x2="118.6" y2="78.6" stroke="rgb(0,0,0)"  stroke-width="2.0"/>
<line x1="118.6" y1="78.6" x2="118.6" y2="118.6" stroke="rgb(0,0,0)"  stroke-width="2.0"/>
<line x1="118.6" y1="118.6" x2="78.6" y2="118.6" stroke="rgb(0,0,0)"  stroke-width="2.0"/>
<line x1="78.6" y1="118.6" x2="78.6" y2="78.6" stroke="rgb(0,0,0)"  stroke-width="2.0"/>
<text x="140.921304" y="154.921304" fill="rgb(255,12,12)"  stroke="rgb(255,12,12)" stroke-width="1" font-size="16" >OH</text>
<text x="62.284271" y="48.000000" fill="rgb(191,191,191)"  stroke="rgb(191,191,191)" stroke-width="1" font-size="16" >H</text>
<text x="22.000000" y="76.284271" fill="rgb(255,12,12)"  stroke="rgb(255,12,12)" stroke-width="1" font-size="16" >HO</text>
<text x="151.274066" y="76.284271" fill="rgb(191,191,191)"  stroke="rgb(191,191,191)" stroke-width="1" font-size="16" >H</text>
<text x="122.989795" y="48.000000" fill="rgb(255,12,12)"  stroke="rgb(255,12,12)" stroke-width="1" font-size="16" >OH</text>
</svg>
</g>
<text text-anchor="middle" font-size="1.500000" fill ="black" font-family="sans-serif"
x="62.500000" y="24.333333" >['*CC(*)O', '*[C@@H](O)[C@@H](*)O']</text>
<g transform="translate(75.000000,0.000000)">
<svg width="25.000000" height="25.000000" x="0" y="0" viewBox="0 0 176.568542 176.568542"
font-family="sans-serif" stroke="rgb(0,0,0)" stroke-width="2.000000"  stroke-linecap="round">
<line x1="127.4" y1="127.4" x2="108.3" y2="108.3" stroke="rgb(0,0,0)"  stroke-width="2.0"/>
<line x1="68.3" y1="68.3" x2="49.2" y2="49.2" stroke="rgb(0,0,0)"  stroke-width="2.0"/>
<line x1="108.3" y1="68.3" x2="127.4" y2="49.2" stroke="rgb(0,0,0)"  stroke-width="2.0"/>
<line x1="68.3" y1="68.3" x2="108.3" y2="68.3" stroke="rgb(0,0,0)"  stroke-width="2.0"/>
<line x1="108.3" y1="68.3" x2="108.3" y2="108.3" stroke="rgb(0,0,0)"  stroke-width="2.0"/>
<line x1="108.3" y1="108.3" x2="68.3" y2="108.3" stroke="rgb(0,0,0)"  stroke-width="2.0"/>
<line x1="68.3" y1="108.3" x2="68.3" y2="68.3" stroke="rgb(0,0,0)"  stroke-width="2.0"/>
<text x="130.568542" y="144.568542" fill="rgb(255,12,12)"  stroke="rgb(255,12,12)" stroke-width="1" font-size="16" >OH</text>
<text x="22.000000" y="48.000000" fill="rgb(255,12,12)"  stroke="rgb(255,12,12)" stroke-width="1" font-size="16" >HO</text>
<text x="130.568542" y="48.000000" fill="rgb(255,12,12)"  stroke="rgb(255,12,12)" stroke-width="1" font-size="16" >OH</text>
</svg>
</g>
<text text-anchor="middle" font-size="1.500000" fill ="black" font-family="sans-serif"
x="87.500000" y="24.333333" >['*CC(*)O', '*C(O)[C@@H](*)O']</text>
<g transform="translate(0.000000,25.000000)">
<svg width="25.000000" height="25.000000" x="0" y="0" viewBox="0 0 197.274066 186.921304"
font-family="sans-serif" stroke="rgb(0,0,0)" stroke-width="2.000000"  stroke-linecap="round">
<line x1="137.7" y1="137.7" x2="118.6" y2="118.6" stroke="rgb(0,0,0)"  stroke-width="2.0"/>
<line x1="78.6" y1="78.6" x2="71.6" y2="52.6" stroke="rgb(0,0,0)"  stroke-width="2.0"/>
<line x1="78.6" y1="78.6" x2="52.6" y2="71.6" stroke="rgb(0,0,0)"  stroke-width="2.0"/>
<line x1="86.6" y1="77.8" x2="86.6" y2="79.4" stroke="rgb(0,0,0)"  stroke-width="1.0"/>
<line x1="93.0" y1="77.2" x2="93.0" y2="80.1" stroke="rgb(0,0,0)"  stroke-width="1.0"/>
<line x1="99.4" y1="76.6" x2="99.4" y2="80.7" stroke="rgb(0,0,0)"  stroke-width="1.0"/>
<line x1="105.8" y1="75.9" x2="105.8" y2="81.4" stroke="rgb(0,0,0)"  stroke-width="1.0"/>
<line x1="112.2" y1="75.3" x2="112.2" y2="82.0" stroke="rgb(0,0,0)"  stroke-width="1.0"/>
<line x1="118.6" y1="74.6" x2="118.6" y2="82.6" stroke="rgb(0,0,0)"  stroke-width="1.0"/>
<line x1="123.6" y1="76.5" x2="124.0" y2="78.0" stroke="rgb(0,0,0)"  stroke-width="1.0"/>
<line x1="127.6" y1="74.7" x2="128.3" y2="77.5" stroke="rgb(0,0,0)"  stroke-width="1.0"/>
<line x1="131.6" y1="73.0" x2="132.6" y2="77.0" stroke="rgb(0,0,0)"  stroke-width="1.0"/>
<line x1="135.5" y1="71.3" x2="136.9" y2="76.5" stroke="rgb(0,0,0)"  stroke-width="1.0"/>
<line x1="139.5" y1="69.6" x2="141.3" y2="76.1" stroke="rgb(0,0,0)"  stroke-width="1.0"/>
<line x1="143.5" y1="67.8" x2="145.6" y2="75.6" stroke="rgb(0,0,0)"  stroke-width="1.0"/>
<line x1="118.6" y1="78.6" x2="125.6" y2="52.6" stroke="rgb(0,0,0)"  stroke-width="2.0"/>
<line x1="78.6" y1="78.6" x2="118.6" y2="78.6" stroke="rgb(0,0,0)"  stroke-width="2.0"/>
<line x1="118.6" y1="78.6" x2="118.6" y2="118.6" stroke="rgb(0,0,0)"  stroke-width="2.0"/>
<line x1="118.6" y1="118.6" x2="78.6" y2="118.6" stroke="rgb(0,0,0)"  stroke-width="2.0"/>
<line x1="78.6" y1="118.6" x2="78.6" y2="78.6" stroke="rgb(0,0,0)"  stroke-width="2.0"/>
<text x="140.921304" y="154.921304" fill="rgb(255,12,12)"  stroke="rgb(255,12,12)" stroke-width="1" font-size="16" >OH</text>
<text x="62.284271" y="48.000000" fill="rgb(191,191,191)"  stroke="rgb(191,191,191)" stroke-width="1" font-size="16" >H</text>
<text x="22.000000" y="76.284271" fill="rgb(255,12,12)"  stroke="rgb(255,12,12)" stroke-width="1" font-size="16" >HO</text>
<text x="151.274066" y="76.284271" fill="rgb(191,191,191)"  stroke="rgb(191,191,191)" stroke-width="1" font-size="16" >H</text>
<text x="122.989795" y="48.000000" fill="rgb(255,12,12)"  stroke="rgb(255,12,12)" stroke-width="1" font-size="16" >OH</text>
</svg>
</g>
<text text-anchor="middle" font-size="1.500000" fill ="black" font-family="sans-serif"
x="12.500000" y="49.333333" >['*CC(*)O', '*[C@H](O)[C@H](*)O']</text>
<g transform="translate(25.000000,25.000000)">
<svg width="25.000000" height="25.000000" x="0" y="0" viewBox="0 0 208.284271 188.284271"
font-family="sans-serif" stroke="rgb(0,0,0)" stroke-width="2.000000"  stroke-linecap="round">
<line x1="161.8" y1="131.7" x2="148.3" y2="108.3" stroke="rgb(0,0,0)"  stroke-width="2.0"/>
<line x1="148.3" y1="108.3" x2="108.3" y2="108.3" stroke="rgb(0,0,0)"  stroke-width="2.0"/>
<polygon points="108.284271 108.284271 112.284271 135.084271 104.284271 135.084271 " stroke-width="2.000000" fill="rgb(0,0,0)"  stroke="rgb(0,0,0)" />
<line x1="68.3" y1="68.3" x2="49.2" y2="49.2" stroke="rgb(0,0,0)"  stroke-width="2.0"/>
<line x1="68.3" y1="68.3" x2="95.3" y2="68.3" stroke="rgb(0,0,0)"  stroke-width="2.0"/>
<line x1="108.3" y1="81.3" x2="108.3" y2="108.3" stroke="rgb(0,0,0)"  stroke-width="2.0"/>
<line x1="108.3" y1="108.3" x2="68.3" y2="108.3" stroke="rgb(0,0,0)"  stroke-width="2.0"/>
<line x1="68.3" y1="108.3" x2="68.3" y2="68.3" stroke="rgb(0,0,0)"  stroke-width="2.0"/>
<text x="162.284271" y="150.925287" fill="rgb(255,12,12)"  stroke="rgb(255,12,12)" stroke-width="1" font-size="16" >OH</text>
<text x="102.284271" y="156.284271" fill="rgb(191,191,191)"  stroke="rgb(191,191,191)" stroke-width="1" font-size="16" >H</text>
<text x="22.000000" y="48.000000" fill="rgb(255,12,12)"  stroke="rgb(255,12,12)" stroke-width="1" font-size="16" >HO</text>
<text x="102.284271" y="76.284271" fill="rgb(255,12,12)"  stroke="rgb(255,12,12)" stroke-width="1" font-size="16" >O</text>
</svg>
</g>
<text text-anchor="middle" font-size="1.500000" fill ="black" font-family="sans-serif"
x="37.500000" y="49.333333" >['*CC(*)O', '*O[C@@H](*)CO']</text>
<g transform="translate(50.000000,25.000000)">
<svg width="25.000000" height="25.000000" x="0" y="0" viewBox="0 0 229.282032 183.923048"
font-family="sans-serif" stroke="rgb(0,0,0)" stroke-width="2.000000"  stroke-linecap="round">
<line x1="178.0" y1="68.1" x2="154.6" y2="54.6" stroke="rgb(0,0,0)"  stroke-width="2.0"/>
<line x1="154.6" y1="54.6" x2="120.0" y2="74.6" stroke="rgb(0,0,0)"  stroke-width="2.0"/>
<line x1="100.0" y1="109.3" x2="86.5" y2="132.7" stroke="rgb(0,0,0)"  stroke-width="2.0"/>
<line x1="100.0" y1="109.3" x2="113.5" y2="132.7" stroke="rgb(0,0,0)"  stroke-width="2.0"/>
<line x1="95.3" y1="102.8" x2="96.7" y2="102.0" stroke="rgb(0,0,0)"  stroke-width="1.0"/>
<line x1="91.6" y1="97.5" x2="94.0" y2="96.1" stroke="rgb(0,0,0)"  stroke-width="1.0"/>
<line x1="87.8" y1="92.3" x2="91.4" y2="90.2" stroke="rgb(0,0,0)"  stroke-width="1.0"/>
<line x1="84.0" y1="87.1" x2="88.8" y2="84.4" stroke="rgb(0,0,0)"  stroke-width="1.0"/>
<line x1="80.3" y1="81.9" x2="86.1" y2="78.5" stroke="rgb(0,0,0)"  stroke-width="1.0"/>
<line x1="76.5" y1="76.6" x2="83.5" y2="72.6" stroke="rgb(0,0,0)"  stroke-width="1.0"/>
<line x1="76.6" y1="70.4" x2="78.0" y2="69.6" stroke="rgb(0,0,0)"  stroke-width="1.0"/>
<line x1="73.9" y1="67.0" x2="76.4" y2="65.6" stroke="rgb(0,0,0)"  stroke-width="1.0"/>
<line x1="71.2" y1="63.6" x2="74.8" y2="61.5" stroke="rgb(0,0,0)"  stroke-width="1.0"/>
<line x1="68.5" y1="60.2" x2="73.2" y2="57.5" stroke="rgb(0,0,0)"  stroke-width="1.0"/>
<line x1="65.8" y1="56.8" x2="71.7" y2="53.5" stroke="rgb(0,0,0)"  stroke-width="1.0"/>
<line x1="63.1" y1="53.4" x2="70.1" y2="49.4" stroke="rgb(0,0,0)"  stroke-width="1.0"/>
<line x1="80.0" y1="74.6" x2="53.0" y2="74.6" stroke="rgb(0,0,0)"  stroke-width="2.0"/>
<line x1="80.0" y1="74.6" x2="120.0" y2="74.6" stroke="rgb(0,0,0)"  stroke-width="2.0"/>
<line x1="120.0" y1="74.6" x2="100.0" y2="109.3" stroke="rgb(0,0,0)"  stroke-width="2.0"/>
<line x1="100.0" y1="109.3" x2="80.0" y2="74.6" stroke="rgb(0,0,0)"  stroke-width="2.0"/>
<text x="183.282032" y="82.641016" fill="rgb(255,12,12)"  stroke="rgb(255,12,12)" stroke-width="1" font-size="16" >OH</text>
<text x="74.000000" y="151.923048" fill="rgb(191,191,191)"  stroke="rgb(191,191,191)" stroke-width="1" font-size="16" >H</text>
<text x="114.000000" y="151.923048" fill="rgb(255,12,12)"  stroke="rgb(255,12,12)" stroke-width="1" font-size="16" >OH</text>
<text x="54.000000" y="48.000000" fill="rgb(191,191,191)"  stroke="rgb(191,191,191)" stroke-width="1" font-size="16" >H</text>
<text x="22.000000" y="82.641016" fill="rgb(255,12,12)"  stroke="rgb(255,12,12)" stroke-width="1" font-size="16" >HO</text>
</svg>
</g>
<text text-anchor="middle" font-size="1.500000" fill ="black" font-family="sans-serif"
x="62.500000" y="49.333333" >['*C(*)CO', '*[C@H](O)[C@H](*)O']</text>
<g transform="translate(75.000000,25.000000)">
<svg width="25.000000" height="25.000000" x="0" y="0" viewBox="0 0 183.923048 180.000000"
font-family="sans-serif" stroke="rgb(0,0,0)" stroke-width="2.000000"  stroke-linecap="round">
<line x1="143.9" y1="127.0" x2="143.9" y2="100.0" stroke="rgb(0,0,0)"  stroke-width="2.0"/>
<line x1="143.9" y1="100.0" x2="109.3" y2="80.0" stroke="rgb(0,0,0)"  stroke-width="2.0"/>
<line x1="109.3" y1="80.0" x2="109.3" y2="53.0" stroke="rgb(0,0,0)"  stroke-width="2.0"/>
<line x1="109.3" y1="80.0" x2="74.6" y2="100.0" stroke="rgb(0,0,0)"  stroke-width="2.0"/>
<line x1="73.1" y1="102.6" x2="49.8" y2="89.1" stroke="rgb(0,0,0)"  stroke-width="2.0"/>
<line x1="76.1" y1="97.4" x2="52.8" y2="83.9" stroke="rgb(0,0,0)"  stroke-width="2.0"/>
<line x1="74.6" y1="100.0" x2="74.6" y2="127.0" stroke="rgb(0,0,0)"  stroke-width="2.0"/>
<text x="139.923048" y="148.000000" fill="rgb(102,102,102)"  stroke="rgb(102,102,102)" stroke-width="1" font-size="16" >CH</text>
<text x="163.923048" y="151.680000" fill="rgb(102,102,102)"  stroke="rgb(102,102,102)" stroke-width="1" font-size="13" >3</text>
<text x="103.282032" y="48.000000" fill="rgb(255,12,12)"  stroke="rgb(255,12,12)" stroke-width="1" font-size="16" >OH</text>
<text x="34.000000" y="88.000000" fill="rgb(255,12,12)"  stroke="rgb(255,12,12)" stroke-width="1" font-size="16" >O</text>
<text x="68.641016" y="148.000000" fill="rgb(255,12,12)"  stroke="rgb(255,12,12)" stroke-width="1" font-size="16" >OH</text>
</svg>
</g>
<text text-anchor="middle" font-size="1.500000" fill ="black" font-family="sans-serif"
x="87.500000" y="49.333333" >['*C(=O)O', '*C(O)CC']</text>
<g transform="translate(0.000000,50.000000)">
<svg width="25.000000" height="25.000000" x="0" y="0" viewBox="0 0 162.714735 250.844353"
font-family="sans-serif" stroke="rgb(0,0,0)" stroke-width="2.000000"  stroke-linecap="round">
<line x1="78.7" y1="52.6" x2="71.7" y2="78.6" stroke="rgb(0,0,0)"  stroke-width="2.0"/>
<line x1="71.7" y1="78.6" x2="100.0" y2="106.9" stroke="rgb(0,0,0)"  stroke-width="2.0"/>
<polygon points="100.000000 106.921304 111.926395 82.590231 118.511350 87.133178 " stroke-width="2.000000" fill="rgb(0,0,0)"  stroke="rgb(0,0,0)" />
<line x1="80.0" y1="141.6" x2="53.0" y2="141.6" stroke="rgb(0,0,0)"  stroke-width="2.0"/>
<line x1="83.3" y1="134.2" x2="84.7" y2="135.0" stroke="rgb(0,0,0)"  stroke-width="1.0"/>
<line x1="86.0" y1="128.4" x2="88.4" y2="129.8" stroke="rgb(0,0,0)"  stroke-width="1.0"/>
<line x1="88.6" y1="122.5" x2="92.2" y2="124.6" stroke="rgb(0,0,0)"  stroke-width="1.0"/>
<line x1="91.2" y1="116.6" x2="96.0" y2="119.4" stroke="rgb(0,0,0)"  stroke-width="1.0"/>
<line x1="93.9" y1="110.8" x2="99.7" y2="114.1" stroke="rgb(0,0,0)"  stroke-width="1.0"/>
<line x1="96.5" y1="104.9" x2="103.5" y2="108.9" stroke="rgb(0,0,0)"  stroke-width="1.0"/>
<line x1="80.0" y1="141.6" x2="60.0" y2="176.2" stroke="rgb(0,0,0)"  stroke-width="2.0"/>
<line x1="60.0" y1="176.2" x2="73.5" y2="199.6" stroke="rgb(0,0,0)"  stroke-width="2.0"/>
<line x1="80.0" y1="141.6" x2="100.0" y2="106.9" stroke="rgb(0,0,0)"  stroke-width="2.0"/>
<line x1="100.0" y1="106.9" x2="113.5" y2="130.3" stroke="rgb(0,0,0)"  stroke-width="2.0"/>
<line x1="107.0" y1="141.6" x2="80.0" y2="141.6" stroke="rgb(0,0,0)"  stroke-width="2.0"/>
<text x="76.068491" y="48.000000" fill="rgb(255,12,12)"  stroke="rgb(255,12,12)" stroke-width="1" font-size="16" >OH</text>
<text x="116.714735" y="81.996529" fill="rgb(191,191,191)"  stroke="rgb(191,191,191)" stroke-width="1" font-size="16" >H</text>
<text x="114.000000" y="149.562320" fill="rgb(255,12,12)"  stroke="rgb(255,12,12)" stroke-width="1" font-size="16" >O</text>
<text x="34.000000" y="149.562320" fill="rgb(191,191,191)"  stroke="rgb(191,191,191)" stroke-width="1" font-size="16" >H</text>
<text x="74.000000" y="218.844353" fill="rgb(255,12,12)"  stroke="rgb(255,12,12)" stroke-width="1" font-size="16" >OH</text>
</svg>
</g>
<text text-anchor="middle" font-size="1.500000" fill ="black" font-family="sans-serif"
x="12.500000" y="74.333333" >['*C(*)CO', '*O[C@@H](*)CO']</text>
<g transform="translate(25.000000,50.000000)">
<svg width="25.000000" height="25.000000" x="0" y="0" viewBox="0 0 208.989795 203.630811"
font-family="sans-serif" stroke="rgb(0,0,0)" stroke-width="2.000000"  stroke-linecap="round">
<line x1="156.4" y1="43.4" x2="130.4" y2="50.4" stroke="rgb(0,0,0)"  stroke-width="2.0"/>
<line x1="130.4" y1="50.4" x2="120.0" y2="89.0" stroke="rgb(0,0,0)"  stroke-width="2.0"/>
<line x1="120.0" y1="89.0" x2="146.9" y2="91.2" stroke="rgb(0,0,0)"  stroke-width="2.0"/>
<line x1="100.0" y1="123.6" x2="100.0" y2="150.6" stroke="rgb(0,0,0)"  stroke-width="2.0"/>
<polygon points="80.000000 88.989795 63.135898 67.780314 70.064102 63.780314 " stroke-width="2.000000" fill="rgb(0,0,0)"  stroke="rgb(0,0,0)" />
<line x1="112.0" y1="89.8" x2="112.0" y2="88.2" stroke="rgb(0,0,0)"  stroke-width="1.0"/>
<line x1="105.6" y1="90.4" x2="105.6" y2="87.5" stroke="rgb(0,0,0)"  stroke-width="1.0"/>
<line x1="99.2" y1="91.1" x2="99.2" y2="86.9" stroke="rgb(0,0,0)"  stroke-width="1.0"/>
<line x1="92.8" y1="91.7" x2="92.8" y2="86.3" stroke="rgb(0,0,0)"  stroke-width="1.0"/>
<line x1="86.4" y1="92.3" x2="86.4" y2="85.6" stroke="rgb(0,0,0)"  stroke-width="1.0"/>
<line x1="80.0" y1="93.0" x2="80.0" y2="85.0" stroke="rgb(0,0,0)"  stroke-width="1.0"/>
<line x1="80.0" y1="89.0" x2="53.0" y2="89.0" stroke="rgb(0,0,0)"  stroke-width="2.0"/>
<line x1="80.0" y1="89.0" x2="120.0" y2="89.0" stroke="rgb(0,0,0)"  stroke-width="2.0"/>
<line x1="120.0" y1="89.0" x2="100.0" y2="123.6" stroke="rgb(0,0,0)"  stroke-width="2.0"/>
<line x1="100.0" y1="123.6" x2="80.0" y2="89.0" stroke="rgb(0,0,0)"  stroke-width="2.0"/>
<text x="162.989795" y="48.000000" fill="rgb(255,12,12)"  stroke="rgb(255,12,12)" stroke-width="1" font-size="16" >OH</text>
<text x="153.871059" y="100.198945" fill="rgb(191,191,191)"  stroke="rgb(191,191,191)" stroke-width="1" font-size="16" >H</text>
<text x="94.000000" y="171.630811" fill="rgb(255,12,12)"  stroke="rgb(255,12,12)" stroke-width="1" font-size="16" >OH</text>
<text x="54.000000" y="62.348779" fill="rgb(191,191,191)"  stroke="rgb(191,191,191)" stroke-width="1" font-size="16" >H</text>
<text x="22.000000" y="96.989795" fill="rgb(255,12,12)"  stroke="rgb(255,12,12)" stroke-width="1" font-size="16" >HO</text>
</svg>
</g>
<text text-anchor="middle" font-size="1.500000" fill ="black" font-family="sans-serif"
x="37.500000" y="74.333333" >['*C(*)CO', '*C(O)[C@@H](*)O']</text>
<g transform="translate(50.000000,50.000000)">
<svg width="25.000000" height="25.000000" x="0" y="0" viewBox="0 0 188.284271 180.000000"
font-family="sans-serif" stroke="rgb(0,0,0)" stroke-width="2.000000"  stroke-linecap="round">
<line x1="56.6" y1="133.5" x2="80.0" y2="120.0" stroke="rgb(0,0,0)"  stroke-width="2.0"/>
<line x1="80.0" y1="120.0" x2="80.0" y2="80.0" stroke="rgb(0,0,0)"  stroke-width="2.0"/>
<line x1="74.6" y1="80.8" x2="74.6" y2="79.2" stroke="rgb(0,0,0)"  stroke-width="1.0"/>
<line x1="70.4" y1="81.4" x2="70.4" y2="78.6" stroke="rgb(0,0,0)"  stroke-width="1.0"/>
<line x1="66.1" y1="82.1" x2="66.1" y2="77.9" stroke="rgb(0,0,0)"  stroke-width="1.0"/>
<line x1="61.8" y1="82.7" x2="61.8" y2="77.3" stroke="rgb(0,0,0)"  stroke-width="1.0"/>
<line x1="57.5" y1="83.4" x2="57.5" y2="76.6" stroke="rgb(0,0,0)"  stroke-width="1.0"/>
<line x1="53.2" y1="84.0" x2="53.2" y2="76.0" stroke="rgb(0,0,0)"  stroke-width="1.0"/>
<line x1="120.0" y1="80.0" x2="139.1" y2="99.1" stroke="rgb(0,0,0)"  stroke-width="2.0"/>
<line x1="120.0" y1="40.0" x2="120.0" y2="80.0" stroke="rgb(0,0,0)"  stroke-width="2.0"/>
<line x1="120.0" y1="80.0" x2="80.0" y2="80.0" stroke="rgb(0,0,0)"  stroke-width="2.0"/>
<line x1="80.0" y1="80.0" x2="80.0" y2="53.0" stroke="rgb(0,0,0)"  stroke-width="2.0"/>
<line x1="93.0" y1="40.0" x2="120.0" y2="40.0" stroke="rgb(0,0,0)"  stroke-width="2.0"/>
<text x="27.358984" y="148.000000" fill="rgb(255,12,12)"  stroke="rgb(255,12,12)" stroke-width="1" font-size="16" >HO</text>
<text x="34.000000" y="88.000000" fill="rgb(191,191,191)"  stroke="rgb(191,191,191)" stroke-width="1" font-size="16" >H</text>
<text x="74.000000" y="48.000000" fill="rgb(255,12,12)"  stroke="rgb(255,12,12)" stroke-width="1" font-size="16" >O</text>
<text x="142.284271" y="116.284271" fill="rgb(255,12,12)"  stroke="rgb(255,12,12)" stroke-width="1" font-size="16" >OH</text>
</svg>
</g>
<text text-anchor="middle" font-size="1.500000" fill ="black" font-family="sans-serif"
x="62.500000" y="74.333333" >['*CC(*)O', '*O[C@@H](*)CO']</text>
</svg>
