<?xml version="1.0"?>
<svg version="1.1" id="topsvg"
xmlns="http://www.w3.org/2000/svg" xmlns:xlink="http://www.w3.org/1999/xlink"
xmlns:cml="http://www.xml-cml.org/schema" x="0" y="0" width="100%" height="100%" viewBox="0 0 100 75">
<title>Multiple Molecules - Open Babel Depiction</title>
<rect x="0" y="0" width="100" height="75" fill="white"/>
<g transform="translate(0,0)">
<svg width="25" height="25" x="0" y="0" viewBox="0 0 176.569 176.569"
font-family="sans-serif" stroke="rgb(0,0,0)" stroke-width="2"  stroke-linecap="round">
<line x1="125.3" y1="129.5" x2="106.2" y2="110.4" stroke="rgb(0,0,0)"  stroke-width="2.0"/>
<line x1="129.5" y1="125.3" x2="110.4" y2="106.2" stroke="rgb(0,0,0)"  stroke-width="2.0"/>
<line x1="68.3" y1="68.3" x2="49.2" y2="49.2" stroke="rgb(0,0,0)"  stroke-width="2.0"/>
<line x1="108.3" y1="68.3" x2="127.4" y2="49.2" stroke="rgb(0,0,0)"  stroke-width="2.0"/>
<line x1="68.3" y1="68.3" x2="108.3" y2="68.3" stroke="rgb(0,0,0)"  stroke-width="2.0"/>
<line x1="108.3" y1="68.3" x2="108.3" y2="108.3" stroke="rgb(0,0,0)"  stroke-width="2.0"/>
<line x1="108.3" y1="108.3" x2="68.3" y2="108.3" stroke="rgb(0,0,0)"  stroke-width="2.0"/>
<line x1="68.3" y1="108.3" x2="68.3" y2="68.3" stroke="rgb(0,0,0)"  stroke-width="2.0"/>
<text x="130.568542" y="144.568542" fill="rgb(255,12,12)"  stroke="rgb(255,12,12)" stroke-width="1" font-size="16" >O</text>
<text x="22.000000" y="48.000000" fill="rgb(255,12,12)"  stroke="rgb(255,12,12)" stroke-width="1" font-size="16" >HO</text>
<text x="130.568542" y="48.000000" fill="rgb(255,12,12)"  stroke="rgb(255,12,12)" stroke-width="1" font-size="16" >OH</text>
</svg>
</g>
<text text-anchor="middle" font-size="1.500000" fill ="black" font-family="sans-serif"
x="12.500000" y="24.333333" >['*CC(*)O', '*C(=O)C(*)O']</text>
<g transform="translate(25.000000,0.000000)">
<svg width="25.000000" height="25.000000" x="0" y="0" viewBox="0 0 183.923048 180.000000"
font-family="sans-serif" stroke="rgb(0,0,0)" stroke-width="2.000000"  stroke-linecap="round">
<line x1="143.9" y1="127.0" x2="143.9" y2="100.0" stroke="rgb(0,0,0)"  stroke-width="2.0"/>
<line x1="143.9" y1="100.0" x2="109.3" y2="80.0" stroke="rgb(0,0,0)"  stroke-width="2.0"/>
<line x1="106.3" y1="80.0" x2="106.3" y2="53.0" stroke="rgb(0,0,0)"  stroke-width="2.0"/>
<line x1="112.3" y1="80.0" x2="112.3" y2="53.0" stroke="rgb(0,0,0)"  stroke-width="2.0"/>
<line x1="109.3" y1="80.0" x2="74.6" y2="100.0" stroke="rgb(0,0,0)"  stroke-width="2.0"/>
<line x1="73.1" y1="102.6" x2="49.8" y2="89.1" stroke="rgb(0,0,0)"  stroke-width="2.0"/>
<line x1="76.1" y1="97.4" x2="52.8" y2="83.9" stroke="rgb(0,0,0)"  stroke-width="2.0"/>
<line x1="74.6" y1="100.0" x2="74.6" y2="127.0" stroke="rgb(0,0,0)"  stroke-width="2.0"/>
<text x="139.923048" y="148.000000" fill="rgb(102,102,102)"  stroke="rgb(102,102,102)" stroke-width="1" font-size="16" >CH</text>
<text x="163.923048" y="151.680000" fill="rgb(102,102,102)"  stroke="rgb(102,102,102)" stroke-width="1" font-size="13" >3</text>
<text x="103.282032" y="48.000000" fill="rgb(255,12,12)"  stroke="rgb(255,12,12)" stroke-width="1" font-size="16" >O</text>
<text x="34.000000" y="88.000000" fill="rgb(255,12,12)"  stroke="rgb(255,12,12)" stroke-width="1" font-size="16" >O</text>
<text x="68.641016" y="148.000000" fill="rgb(255,12,12)"  stroke="rgb(255,12,12)" stroke-width="1" font-size="16" >OH</text>
</svg>
</g>
<text text-anchor="middle" font-size="1.500000" fill ="black" font-family="sans-serif"
x="37.500000" y="24.333333" >['*C(=O)O', '*C(=O)CC']</text>
<g transform="translate(50.000000,0.000000)">
<svg width="25.000000" height="25.000000" x="0" y="0" viewBox="0 0 197.274066 197.274066"
font-family="sans-serif" stroke="rgb(0,0,0)" stroke-width="2.000000"  stroke-linecap="round">
<line x1="146.0" y1="150.2" x2="126.9" y2="131.1" stroke="rgb(0,0,0)"  stroke-width="2.0"/>
<line x1="150.2" y1="146.0" x2="131.1" y2="126.9" stroke="rgb(0,0,0)"  stroke-width="2.0"/>
<line x1="86.8" y1="84.0" x2="88.4" y2="83.6" stroke="rgb(0,0,0)"  stroke-width="1.0"/>
<line x1="85.1" y1="80.0" x2="87.9" y2="79.3" stroke="rgb(0,0,0)"  stroke-width="1.0"/>
<line x1="83.4" y1="76.1" x2="87.4" y2="75.0" stroke="rgb(0,0,0)"  stroke-width="1.0"/>
<line x1="81.6" y1="72.1" x2="86.9" y2="70.7" stroke="rgb(0,0,0)"  stroke-width="1.0"/>
<line x1="79.9" y1="68.1" x2="86.4" y2="66.4" stroke="rgb(0,0,0)"  stroke-width="1.0"/>
<line x1="78.2" y1="64.1" x2="85.9" y2="62.1" stroke="rgb(0,0,0)"  stroke-width="1.0"/>
<line x1="89.0" y1="89.0" x2="50.4" y2="78.6" stroke="rgb(0,0,0)"  stroke-width="2.0"/>
<line x1="50.4" y1="78.6" x2="43.4" y2="52.6" stroke="rgb(0,0,0)"  stroke-width="2.0"/>
<line x1="89.0" y1="89.0" x2="116.0" y2="89.0" stroke="rgb(0,0,0)"  stroke-width="2.0"/>
<line x1="129.0" y1="102.0" x2="129.0" y2="129.0" stroke="rgb(0,0,0)"  stroke-width="2.0"/>
<line x1="129.0" y1="129.0" x2="89.0" y2="129.0" stroke="rgb(0,0,0)"  stroke-width="2.0"/>
<line x1="89.0" y1="129.0" x2="89.0" y2="89.0" stroke="rgb(0,0,0)"  stroke-width="2.0"/>
<text x="151.274066" y="165.274066" fill="rgb(255,12,12)"  stroke="rgb(255,12,12)" stroke-width="1" font-size="16" >O</text>
<text x="72.637033" y="58.352762" fill="rgb(191,191,191)"  stroke="rgb(191,191,191)" stroke-width="1" font-size="16" >H</text>
<text x="22.000000" y="48.000000" fill="rgb(255,12,12)"  stroke="rgb(255,12,12)" stroke-width="1" font-size="16" >HO</text>
<text x="122.989795" y="96.989795" fill="rgb(255,12,12)"  stroke="rgb(255,12,12)" stroke-width="1" font-size="16" >O</text>
</svg>
</g>
<text text-anchor="middle" font-size="1.500000" fill ="black" font-family="sans-serif"
x="62.500000" y="24.333333" >['*CC(*)=O', '*O[C@@H](*)CO']</text>
<g transform="translate(75.000000,0.000000)">
<svg width="25.000000" height="25.000000" x="0" y="0" viewBox="0 0 197.274066 186.921304"
font-family="sans-serif" stroke="rgb(0,0,0)" stroke-width="2.000000"  stroke-linecap="round">
<line x1="135.6" y1="139.9" x2="116.5" y2="120.8" stroke="rgb(0,0,0)"  stroke-width="2.0"/>
<line x1="139.9" y1="135.6" x2="120.8" y2="116.5" stroke="rgb(0,0,0)"  stroke-width="2.0"/>
<polygon points="78.637033 78.637033 67.836979 53.785497 75.564386 51.714945 " stroke-width="2.000000" fill="rgb(0,0,0)"  stroke="rgb(0,0,0)" />
<line x1="78.6" y1="78.6" x2="52.6" y2="71.6" stroke="rgb(0,0,0)"  stroke-width="2.0"/>
<line x1="110.6" y1="79.4" x2="110.6" y2="77.8" stroke="rgb(0,0,0)"  stroke-width="1.0"/>
<line x1="104.2" y1="80.1" x2="104.2" y2="77.2" stroke="rgb(0,0,0)"  stroke-width="1.0"/>
<line x1="97.8" y1="80.7" x2="97.8" y2="76.6" stroke="rgb(0,0,0)"  stroke-width="1.0"/>
<line x1="91.4" y1="81.4" x2="91.4" y2="75.9" stroke="rgb(0,0,0)"  stroke-width="1.0"/>
<line x1="85.0" y1="82.0" x2="85.0" y2="75.3" stroke="rgb(0,0,0)"  stroke-width="1.0"/>
<line x1="78.6" y1="82.6" x2="78.6" y2="74.6" stroke="rgb(0,0,0)"  stroke-width="1.0"/>
<line x1="118.6" y1="78.6" x2="144.7" y2="71.6" stroke="rgb(0,0,0)"  stroke-width="2.0"/>
<line x1="118.6" y1="78.6" x2="125.6" y2="52.6" stroke="rgb(0,0,0)"  stroke-width="2.0"/>
<line x1="78.6" y1="78.6" x2="118.6" y2="78.6" stroke="rgb(0,0,0)"  stroke-width="2.0"/>
<line x1="118.6" y1="78.6" x2="118.6" y2="118.6" stroke="rgb(0,0,0)"  stroke-width="2.0"/>
<line x1="118.6" y1="118.6" x2="78.6" y2="118.6" stroke="rgb(0,0,0)"  stroke-width="2.0"/>
<line x1="78.6" y1="118.6" x2="78.6" y2="78.6" stroke="rgb(0,0,0)"  stroke-width="2.0"/>
<text x="140.921304" y="154.921304" fill="rgb(255,12,12)"  stroke="rgb(255,12,12)" stroke-width="1" font-size="16" >O</text>
<text x="62.284271" y="48.000000" fill="rgb(191,191,191)"  stroke="rgb(191,191,191)" stroke-width="1" font-size="16" >H</text>
<text x="22.000000" y="76.284271" fill="rgb(255,12,12)"  stroke="rgb(255,12,12)" stroke-width="1" font-size="16" >HO</text>
<text x="151.274066" y="76.284271" fill="rgb(191,191,191)"  stroke="rgb(191,191,191)" stroke-width="1" font-size="16" >H</text>
<text x="122.989795" y="48.000000" fill="rgb(255,12,12)"  stroke="rgb(255,12,12)" stroke-width="1" font-size="16" >OH</text>
</svg>
</g>
<text text-anchor="middle" font-size="1.500000" fill ="black" font-family="sans-serif"
x="87.500000" y="24.333333" >['*CC(*)=O', '*[C@H](O)[C@H](*)O']</text>
<g transform="translate(0.000000,25.000000)">
<svg width="25.000000" height="25.000000" x="0" y="0" viewBox="0 0 189.282032 203.923048"
font-family="sans-serif" stroke="rgb(0,0,0)" stroke-width="2.000000"  stroke-linecap="round">
<line x1="136.5" y1="160.0" x2="113.1" y2="146.5" stroke="rgb(0,0,0)"  stroke-width="2.0"/>
<line x1="139.5" y1="154.8" x2="116.1" y2="141.3" stroke="rgb(0,0,0)"  stroke-width="2.0"/>
<line x1="74.6" y1="143.9" x2="51.3" y2="157.4" stroke="rgb(0,0,0)"  stroke-width="2.0"/>
<polygon points="94.641016 109.282032 104.576915 84.072551 111.505118 88.072551 " stroke-width="2.000000" fill="rgb(0,0,0)"  stroke="rgb(0,0,0)" />
<line x1="94.6" y1="109.3" x2="74.6" y2="74.6" stroke="rgb(0,0,0)"  stroke-width="2.0"/>
<line x1="74.6" y1="74.6" x2="88.1" y2="51.3" stroke="rgb(0,0,0)"  stroke-width="2.0"/>
<line x1="94.6" y1="109.3" x2="114.6" y2="143.9" stroke="rgb(0,0,0)"  stroke-width="2.0"/>
<line x1="114.6" y1="143.9" x2="74.6" y2="143.9" stroke="rgb(0,0,0)"  stroke-width="2.0"/>
<line x1="74.6" y1="143.9" x2="94.6" y2="109.3" stroke="rgb(0,0,0)"  stroke-width="2.0"/>
<text x="143.282032" y="171.923048" fill="rgb(255,12,12)"  stroke="rgb(255,12,12)" stroke-width="1" font-size="16" >O</text>
<text x="22.000000" y="171.923048" fill="rgb(255,12,12)"  stroke="rgb(255,12,12)" stroke-width="1" font-size="16" >HO</text>
<text x="108.641016" y="82.641016" fill="rgb(191,191,191)"  stroke="rgb(191,191,191)" stroke-width="1" font-size="16" >H</text>
<text x="88.641016" y="48.000000" fill="rgb(255,12,12)"  stroke="rgb(255,12,12)" stroke-width="1" font-size="16" >OH</text>
</svg>
</g>
<text text-anchor="middle" font-size="1.500000" fill ="black" font-family="sans-serif"
x="12.500000" y="49.333333" >['*C(*)CO', '*C(=O)C(*)O']</text>
<g transform="translate(25.000000,25.000000)">
<svg width="25.000000" height="25.000000" x="0" y="0" viewBox="0 0 203.630811 181.562320"
font-family="sans-serif" stroke="rgb(0,0,0)" stroke-width="2.000000"  stroke-linecap="round">
<line x1="151.9" y1="64.2" x2="125.8" y2="71.2" stroke="rgb(0,0,0)"  stroke-width="2.0"/>
<line x1="150.3" y1="58.4" x2="124.2" y2="65.4" stroke="rgb(0,0,0)"  stroke-width="2.0"/>
<line x1="125.0" y1="68.3" x2="105.9" y2="49.2" stroke="rgb(0,0,0)"  stroke-width="2.0"/>
<line x1="125.0" y1="68.3" x2="114.6" y2="106.9" stroke="rgb(0,0,0)"  stroke-width="2.0"/>
<polygon points="114.641016 106.921304 141.675541 105.084329 141.033711 113.058541 " stroke-width="2.000000" fill="rgb(0,0,0)"  stroke="rgb(0,0,0)" />
<line x1="74.6" y1="106.9" x2="51.3" y2="93.4" stroke="rgb(0,0,0)"  stroke-width="2.0"/>
<line x1="74.6" y1="106.9" x2="114.6" y2="106.9" stroke="rgb(0,0,0)"  stroke-width="2.0"/>
<line x1="114.6" y1="106.9" x2="94.6" y2="141.6" stroke="rgb(0,0,0)"  stroke-width="2.0"/>
<line x1="94.6" y1="141.6" x2="74.6" y2="106.9" stroke="rgb(0,0,0)"  stroke-width="2.0"/>
<text x="157.630811" y="65.931509" fill="rgb(255,12,12)"  stroke="rgb(255,12,12)" stroke-width="1" font-size="16" >O</text>
<text x="78.709507" y="48.000000" fill="rgb(255,12,12)"  stroke="rgb(255,12,12)" stroke-width="1" font-size="16" >HO</text>
<text x="148.512075" y="118.130454" fill="rgb(191,191,191)"  stroke="rgb(191,191,191)" stroke-width="1" font-size="16" >H</text>
<text x="22.000000" y="94.921304" fill="rgb(255,12,12)"  stroke="rgb(255,12,12)" stroke-width="1" font-size="16" >HO</text>
</svg>
</g>
<text text-anchor="middle" font-size="1.500000" fill ="black" font-family="sans-serif"
x="37.500000" y="49.333333" >['*C(*)C(=O)O', '*CC(*)O']</text>
<g transform="translate(50.000000,25.000000)">
<svg width="25.000000" height="25.000000" x="0" y="0" viewBox="0 0 176.568542 176.568542"
font-family="sans-serif" stroke="rgb(0,0,0)" stroke-width="2.000000"  stroke-linecap="round">
<line x1="125.3" y1="129.5" x2="106.2" y2="110.4" stroke="rgb(0,0,0)"  stroke-width="2.0"/>
<line x1="129.5" y1="125.3" x2="110.4" y2="106.2" stroke="rgb(0,0,0)"  stroke-width="2.0"/>
<line x1="68.3" y1="108.3" x2="49.2" y2="127.4" stroke="rgb(0,0,0)"  stroke-width="2.0"/>
<line x1="108.3" y1="68.3" x2="127.4" y2="49.2" stroke="rgb(0,0,0)"  stroke-width="2.0"/>
<line x1="68.3" y1="68.3" x2="108.3" y2="68.3" stroke="rgb(0,0,0)"  stroke-width="2.0"/>
<line x1="108.3" y1="68.3" x2="108.3" y2="108.3" stroke="rgb(0,0,0)"  stroke-width="2.0"/>
<line x1="108.3" y1="108.3" x2="68.3" y2="108.3" stroke="rgb(0,0,0)"  stroke-width="2.0"/>
<line x1="68.3" y1="108.3" x2="68.3" y2="68.3" stroke="rgb(0,0,0)"  stroke-width="2.0"/>
<text x="130.568542" y="144.568542" fill="rgb(255,12,12)"  stroke="rgb(255,12,12)" stroke-width="1" font-size="16" >O</text>
<text x="22.000000" y="144.568542" fill="rgb(255,12,12)"  stroke="rgb(255,12,12)" stroke-width="1" font-size="16" >HO</text>
<text x="130.568542" y="48.000000" fill="rgb(255,12,12)"  stroke="rgb(255,12,12)" stroke-width="1" font-size="16" >OH</text>
</svg>
</g>
<text text-anchor="middle" font-size="1.500000" fill ="black" font-family="sans-serif"
x="62.500000" y="49.333333" >['*CC(*)O', '*C(=O)C(*)O']</text>
<g transform="translate(75.000000,25.000000)">
<svg width="25.000000" height="25.000000" x="0" y="0" viewBox="0 0 186.921304 186.921304"
font-family="sans-serif" stroke="rgb(0,0,0)" stroke-width="2.000000"  stroke-linecap="round">
<line x1="135.6" y1="139.9" x2="116.5" y2="120.8" stroke="rgb(0,0,0)"  stroke-width="2.0"/>
<line x1="139.9" y1="135.6" x2="120.8" y2="116.5" stroke="rgb(0,0,0)"  stroke-width="2.0"/>
<line x1="76.5" y1="73.7" x2="78.0" y2="73.3" stroke="rgb(0,0,0)"  stroke-width="1.0"/>
<line x1="74.7" y1="69.7" x2="77.5" y2="68.9" stroke="rgb(0,0,0)"  stroke-width="1.0"/>
<line x1="73.0" y1="65.7" x2="77.0" y2="64.6" stroke="rgb(0,0,0)"  stroke-width="1.0"/>
<line x1="71.3" y1="61.7" x2="76.5" y2="60.3" stroke="rgb(0,0,0)"  stroke-width="1.0"/>
<line x1="69.6" y1="57.8" x2="76.1" y2="56.0" stroke="rgb(0,0,0)"  stroke-width="1.0"/>
<line x1="67.8" y1="53.8" x2="75.6" y2="51.7" stroke="rgb(0,0,0)"  stroke-width="1.0"/>
<line x1="78.6" y1="78.6" x2="52.6" y2="71.6" stroke="rgb(0,0,0)"  stroke-width="2.0"/>
<line x1="118.6" y1="78.6" x2="137.7" y2="59.5" stroke="rgb(0,0,0)"  stroke-width="2.0"/>
<line x1="78.6" y1="78.6" x2="118.6" y2="78.6" stroke="rgb(0,0,0)"  stroke-width="2.0"/>
<line x1="118.6" y1="78.6" x2="118.6" y2="118.6" stroke="rgb(0,0,0)"  stroke-width="2.0"/>
<line x1="118.6" y1="118.6" x2="78.6" y2="118.6" stroke="rgb(0,0,0)"  stroke-width="2.0"/>
<line x1="78.6" y1="118.6" x2="78.6" y2="78.6" stroke="rgb(0,0,0)"  stroke-width="2.0"/>
<text x="140.921304" y="154.921304" fill="rgb(255,12,12)"  stroke="rgb(255,12,12)" stroke-width="1" font-size="16" >O</text>
<text x="62.284271" y="48.000000" fill="rgb(191,191,191)"  stroke="rgb(191,191,191)" stroke-width="1" font-size="16" >H</text>
<text x="22.000000" y="76.284271" fill="rgb(255,12,12)"  stroke="rgb(255,12,12)" stroke-width="1" font-size="16" >HO</text>
<text x="140.921304" y="58.352762" fill="rgb(255,12,12)"  stroke="rgb(255,12,12)" stroke-width="1" font-size="16" >OH</text>
</svg>
</g>
<text text-anchor="middle" font-size="1.500000" fill ="black" font-family="sans-serif"
x="87.500000" y="49.333333" >['*CC(*)=O', '*C(O)[C@@H](*)O']</text>
<g transform="translate(0.000000,50.000000)">
<svg width="25.000000" height="25.000000" x="0" y="0" viewBox="0 0 186.921304 186.921304"
font-family="sans-serif" stroke="rgb(0,0,0)" stroke-width="2.000000"  stroke-linecap="round">
<line x1="47.1" y1="125.3" x2="66.2" y2="106.2" stroke="rgb(0,0,0)"  stroke-width="2.0"/>
<line x1="51.3" y1="129.5" x2="70.4" y2="110.4" stroke="rgb(0,0,0)"  stroke-width="2.0"/>
<line x1="108.3" y1="68.3" x2="127.4" y2="49.2" stroke="rgb(0,0,0)"  stroke-width="2.0"/>
<polygon points="108.284271 108.284271 119.084325 133.135807 111.356918 135.206360 " stroke-width="2.000000" fill="rgb(0,0,0)"  stroke="rgb(0,0,0)" />
<line x1="108.3" y1="108.3" x2="134.4" y2="115.3" stroke="rgb(0,0,0)"  stroke-width="2.0"/>
<line x1="108.3" y1="68.3" x2="108.3" y2="108.3" stroke="rgb(0,0,0)"  stroke-width="2.0"/>
<line x1="108.3" y1="108.3" x2="68.3" y2="108.3" stroke="rgb(0,0,0)"  stroke-width="2.0"/>
<line x1="68.3" y1="108.3" x2="68.3" y2="68.3" stroke="rgb(0,0,0)"  stroke-width="2.0"/>
<line x1="68.3" y1="68.3" x2="108.3" y2="68.3" stroke="rgb(0,0,0)"  stroke-width="2.0"/>
<text x="34.000000" y="144.568542" fill="rgb(255,12,12)"  stroke="rgb(255,12,12)" stroke-width="1" font-size="16" >O</text>
<text x="130.568542" y="48.000000" fill="rgb(255,12,12)"  stroke="rgb(255,12,12)" stroke-width="1" font-size="16" >OH</text>
<text x="112.637033" y="154.921304" fill="rgb(191,191,191)"  stroke="rgb(191,191,191)" stroke-width="1" font-size="16" >H</text>
<text x="140.921304" y="126.637033" fill="rgb(255,12,12)"  stroke="rgb(255,12,12)" stroke-width="1" font-size="16" >OH</text>
</svg>
</g>
<text text-anchor="middle" font-size="1.500000" fill ="black" font-family="sans-serif"
x="12.500000" y="74.333333" >['*CC(*)=O', '*C(O)[C@@H](*)O']</text>
<g transform="translate(25.000000,50.000000)">
<svg width="25.000000" height="25.000000" x="0" y="0" viewBox="0 0 197.274066 186.921304"
font-family="sans-serif" stroke="rgb(0,0,0)" stroke-width="2.000000"  stroke-linecap="round">
<line x1="135.6" y1="139.9" x2="116.5" y2="120.8" stroke="rgb(0,0,0)"  stroke-width="2.0"/>
<line x1="139.9" y1="135.6" x2="120.8" y2="116.5" stroke="rgb(0,0,0)"  stroke-width="2.0"/>
<line x1="76.5" y1="73.7" x2="78.0" y2="73.3" stroke="rgb(0,0,0)"  stroke-width="1.0"/>
<line x1="74.7" y1="69.7" x2="77.5" y2="68.9" stroke="rgb(0,0,0)"  stroke-width="1.0"/>
<line x1="73.0" y1="65.7" x2="77.0" y2="64.6" stroke="rgb(0,0,0)"  stroke-width="1.0"/>
<line x1="71.3" y1="61.7" x2="76.5" y2="60.3" stroke="rgb(0,0,0)"  stroke-width="1.0"/>
<line x1="69.6" y1="57.8" x2="76.1" y2="56.0" stroke="rgb(0,0,0)"  stroke-width="1.0"/>
<line x1="67.8" y1="53.8" x2="75.6" y2="51.7" stroke="rgb(0,0,0)"  stroke-width="1.0"/>
<line x1="78.6" y1="78.6" x2="52.6" y2="71.6" stroke="rgb(0,0,0)"  stroke-width="2.0"/>
<polygon points="118.637033 78.637033 78.637033 82.637033 78.637033 74.637033 " stroke-width="2.000000" fill="rgb(0,0,0)"  stroke="rgb(0,0,0)" />
<line x1="118.6" y1="78.6" x2="144.7" y2="71.6" stroke="rgb(0,0,0)"  stroke-width="2.0"/>
<line x1="118.6" y1="78.6" x2="125.6" y2="52.6" stroke="rgb(0,0,0)"  stroke-width="2.0"/>
<line x1="78.6" y1="78.6" x2="118.6" y2="78.6" stroke="rgb(0,0,0)"  stroke-width="2.0"/>
<line x1="118.6" y1="78.6" x2="118.6" y2="118.6" stroke="rgb(0,0,0)"  stroke-width="2.0"/>
<line x1="118.6" y1="118.6" x2="78.6" y2="118.6" stroke="rgb(0,0,0)"  stroke-width="2.0"/>
<line x1="78.6" y1="118.6" x2="78.6" y2="78.6" stroke="rgb(0,0,0)"  stroke-width="2.0"/>
<text x="140.921304" y="154.921304" fill="rgb(255,12,12)"  stroke="rgb(255,12,12)" stroke-width="1" font-size="16" >O</text>
<text x="62.284271" y="48.000000" fill="rgb(191,191,191)"  stroke="rgb(191,191,191)" stroke-width="1" font-size="16" >H</text>
<text x="22.000000" y="76.284271" fill="rgb(255,12,12)"  stroke="rgb(255,12,12)" stroke-width="1" font-size="16" >HO</text>
<text x="151.274066" y="76.284271" fill="rgb(191,191,191)"  stroke="rgb(191,191,191)" stroke-width="1" font-size="16" >H</text>
<text x="122.989795" y="48.000000" fill="rgb(255,12,12)"  stroke="rgb(255,12,12)" stroke-width="1" font-size="16" >OH</text>
</svg>
</g>
<text text-anchor="middle" font-size="1.500000" fill ="black" font-family="sans-serif"
x="37.500000" y="74.333333" >['*CC(*)=O', '*[C@@H](O)[C@@H](*)O']</text>
<g transform="translate(50.000000,50.000000)">
<svg width="25.000000" height="25.000000" x="0" y="0" viewBox="0 0 197.274066 168.989795"
font-family="sans-serif" stroke="rgb(0,0,0)" stroke-width="2.000000"  stroke-linecap="round">
<line x1="47.1" y1="97.0" x2="66.2" y2="77.9" stroke="rgb(0,0,0)"  stroke-width="2.0"/>
<line x1="51.3" y1="101.2" x2="70.4" y2="82.1" stroke="rgb(0,0,0)"  stroke-width="2.0"/>
<polygon points="108.284271 80.000000 119.084325 104.851536 111.356918 106.922088 " stroke-width="2.000000" fill="rgb(0,0,0)"  stroke="rgb(0,0,0)" />
<line x1="108.3" y1="80.0" x2="146.9" y2="90.4" stroke="rgb(0,0,0)"  stroke-width="2.0"/>
<line x1="146.9" y1="90.4" x2="153.9" y2="116.4" stroke="rgb(0,0,0)"  stroke-width="2.0"/>
<line x1="108.3" y1="53.0" x2="108.3" y2="80.0" stroke="rgb(0,0,0)"  stroke-width="2.0"/>
<line x1="108.3" y1="80.0" x2="68.3" y2="80.0" stroke="rgb(0,0,0)"  stroke-width="2.0"/>
<line x1="68.3" y1="80.0" x2="68.3" y2="40.0" stroke="rgb(0,0,0)"  stroke-width="2.0"/>
<line x1="68.3" y1="40.0" x2="95.3" y2="40.0" stroke="rgb(0,0,0)"  stroke-width="2.0"/>
<text x="34.000000" y="116.284271" fill="rgb(255,12,12)"  stroke="rgb(255,12,12)" stroke-width="1" font-size="16" >O</text>
<text x="102.284271" y="48.000000" fill="rgb(255,12,12)"  stroke="rgb(255,12,12)" stroke-width="1" font-size="16" >O</text>
<text x="112.637033" y="126.637033" fill="rgb(191,191,191)"  stroke="rgb(191,191,191)" stroke-width="1" font-size="16" >H</text>
<text x="151.274066" y="136.989795" fill="rgb(255,12,12)"  stroke="rgb(255,12,12)" stroke-width="1" font-size="16" >OH</text>
</svg>
</g>
<text text-anchor="middle" font-size="1.500000" fill ="black" font-family="sans-serif"
x="62.500000" y="74.333333" >['*CC(*)=O', '*O[C@@H](*)CO']</text>
</svg>
